<svg version="1.1" id="Capa_1" xmlns="http://www.w3.org/2000/svg" xmlns:xlink="http://www.w3.org/1999/xlink" x="0px" y="0px" viewBox="0 0 512 512" style="enable-background:new 0 0 512 512;" xml:space="preserve">
                        <path d="M423.6,307.4c-3.1-11.6-7.6-22.4-13.4-32.5c-5.9-10.1-13.1-19.4-21.6-27.8c-8.5-8.4-18.3-15.6-29.2-21.7
                        c5-6.7,10.4-13.2,16.2-19.3l-5.4-5.7c-7.7,6.2-14.8,12.8-21.4,19.9c-9.8-4.4-20.2-7.8-31.4-10.2c-11.2-2.4-23.1-3.6-35.8-3.6
                        c-17.4,0-33.8,1.8-49.2,5.5c-15.4,3.7-29.5,8.6-42.3,14.8c-12.8,6.2-24.4,13.4-34.6,21.5c-10.2,8.1-18.8,16.7-25.9,25.7
                        c-2.7,3.5-5.2,7-7.5,10.6c-5.3-4.9-9.4-10.7-12.2-17.4c-3.1-7.4-4.6-15.6-4.6-24.8c0-11.3,2.3-22,6.8-32.1
                        c4.5-10.2,10.8-19.2,18.7-27c8-7.8,17.4-14.2,28.4-19.2c11-4.9,22.9-7.9,35.8-9c3,4.3,6.4,8.2,10.2,11.8c3.8,3.5,7.7,6.6,11.8,9.1
                        c4.1,2.5,8.4,4.4,12.8,5.8c4.4,1.4,8.7,2.1,12.9,2.1c5.2,0,9.6-1.2,13.1-3.7c3.5-2.4,5.2-6,5.2-10.6c0-4.3-1.5-8-4.4-11
                        c-2.9-3-6.9-5.5-12-7.4c-5.1-1.9-11.1-3.3-18.1-4.3c-7-0.9-14.5-1.5-22.5-1.7c-2.6-6.2-3.8-12.7-3.8-19.5c0-6.8,1.3-13.7,3.8-20.6
                        c2.6-6.9,6.2-13.4,10.8-19.8c4.6-6.3,10.2-12.2,16.5-17.6c6.4-5.4,13.4-10.1,21.1-14.1c7.7-4,15.9-7.2,24.6-9.5
                        c8.7-2.3,17.7-3.5,26.8-3.5c5.2,0,10,0.6,14.4,1.7c4.4,1.1,8.1,2.7,11.1,4.8c3.1,2.1,5.5,4.7,7.2,7.8c1.7,3.1,2.6,6.6,2.6,10.5
                        c0,7.3-2.3,14-7,20.1c-4.6,6.1-10.7,11.3-18.1,15.7c-7.4,4.4-15.7,7.8-24.9,10.2c-9.2,2.4-18.3,3.7-27.3,3.7h-4.2
                        c-0.6,0-1-0.1-1.4-0.2l-1,9.1c0.2,0,1,0.1,2.3,0.2c1.3,0.1,3,0.2,5.1,0.2c6.3,0,12.8-0.6,19.5-1.8c6.7-1.2,13.3-3,19.6-5.3
                        c6.3-2.3,12.3-5.2,17.9-8.6c5.6-3.4,10.6-7.3,14.8-11.7c4.2-4.4,7.6-9.2,10.1-14.5c2.5-5.3,3.7-11,3.7-17.1c0-5.5-1.3-10.5-3.8-15.1
                        c-2.6-4.6-6.2-8.5-11-11.8c-4.8-3.2-10.6-5.8-17.5-7.6c-6.9-1.8-14.8-2.7-23.6-2.7c-8.6,0-17.3,1-26,2.9c-8.8,1.9-17.2,4.7-25.3,8.4
                        c-8.1,3.7-15.8,8.1-22.9,13.3c-7.1,5.2-13.4,11.2-18.6,17.9c-5.3,6.7-9.4,14-12.5,21.9c-3,8-4.5,16.4-4.5,25.3
                        c0,4.9,0.6,9.6,1.7,14.2c1.2,4.6,2.8,9,4.9,13.2c-12.5,0.6-23.9,2.3-34,5.2c-10.1,2.9-19,6.7-26.8,11.3c-7.8,4.6-14.5,10-20.2,16
                        c-5.7,6-10.3,12.4-13.9,19.2c-3.6,6.7-6.3,13.6-8,20.7c-1.7,7.1-2.6,14.1-2.6,20.9c0,9.8,1.8,19,5.4,27.8
                        c3.6,8.8,9.1,16.5,16.6,23.2c3,2.6,6.2,5.1,9.8,7.3c-0.7,1.5-1.4,3-2,4.5c-3.8,9.2-5.7,17.9-5.7,26.3c0,7.3,1.4,14,4.2,20
                        c2.8,6,6.5,11.2,11.2,15.6c4.7,4.4,10.2,7.7,16.5,10.1c6.3,2.4,12.9,3.6,19.9,3.6c7,0,13.8-0.8,20.6-2.4c6.7-1.6,13.2-3.7,19.5-6.3
                        c6.3-2.6,12.3-5.6,18.2-8.9c5.9-3.3,11.5-6.8,17-10.4l-5.6-7.3c-0.1,0.1-1,0.7-2.5,1.8c-1.6,1.1-3.7,2.5-6.5,4.2
                        c-2.8,1.7-6,3.5-9.8,5.4c-3.7,1.9-7.7,3.7-12,5.3c-4.3,1.6-8.8,3-13.5,4.1c-4.7,1.1-9.4,1.7-14.2,1.7c-6.2,0-11.8-1.1-17.1-3.3
                        c-5.2-2.2-9.8-5.2-13.6-9c-3.8-3.8-6.9-8.2-9.1-13.2c-2.2-5-3.3-10.3-3.3-15.9c0-6.2,1-12.4,2.9-18.7c1.1,0.4,2.3,0.9,3.4,1.3
                        c11.4,3.9,24.9,5.9,40.6,5.9c14.3,0,27.6-1.8,39.9-5.3c12.3-3.5,23.7-8.2,34.1-13.9c10.4-5.7,19.8-12,28.2-19.1
                        c8.4-7,15.9-14,22.3-21c6.4-7,11.9-13.6,16.5-19.8c3.3-4.5,6-8.3,8.3-11.5c6.6,1.8,12.9,3.9,18.8,6.4c-10.2,11.8-19.4,24.5-27.6,38
                        c-8.2,13.5-15.8,27.2-22.8,41.3c-7,14.1-13.6,28-19.9,42c-6.2,13.9-12.5,27.3-19,40c-6.4,12.7-13.2,24.4-20.2,35.2
                        c-7,10.7-14.8,19.9-23.3,27.6c-8.7-2.3-17.3-4.4-25.7-6.2c-8.4-1.8-16.9-2.7-25.3-2.7c-6.2,0-11.5,0.6-16.1,1.7
                        c-4.6,1.2-8.4,2.7-11.3,4.7c-3,2-5.2,4.3-6.6,6.9c-1.5,2.6-2.2,5.4-2.2,8.3c0,2.4,0.6,4.8,1.8,7.1c1.2,2.3,3.1,4.3,5.6,6
                        c2.5,1.7,5.7,3.1,9.7,4.1c3.9,1,8.6,1.5,14.1,1.5c13.4,0,25.3-1.7,36-5.1c10.6-3.4,20.4-8.1,29.4-14.1c11.6,3.1,23.7,6,36.4,8.6
                        c12.7,2.6,26,3.9,40.1,3.9c15.8,0,30-1.8,42.7-5.3c12.7-3.5,23.9-8.4,33.8-14.6c9.9-6.2,18.3-13.5,25.4-21.9
                        c7.1-8.4,12.9-17.5,17.5-27.3c4.6-9.8,8-20.1,10.1-30.9c2.1-10.8,3.2-21.7,3.2-32.6C428.3,330.9,426.7,318.9,423.6,307.4z
                        M224.8,155.7c5.1,0.5,9.6,1.3,13.6,2.4c4,1,7.3,2.5,9.8,4.3c2.5,1.8,3.7,4.1,3.7,6.9c0,1.6-0.8,3-2.4,4.2c-1.6,1.2-3.9,1.7-7.1,1.7
                        c-2.7,0-5.5-0.5-8.4-1.4c-3-0.9-5.9-2.3-8.8-4c-2.9-1.7-5.7-3.9-8.4-6.4c-2.7-2.5-5.2-5.4-7.4-8.6
                        C214.6,154.8,219.7,155.2,224.8,155.7z M312.6,222.2c-3.7,5.1-8.6,10.9-14.7,17.5c-6.1,6.6-13.3,13.6-21.5,21
                        c-8.2,7.4-17.4,14.1-27.5,20.3c-10.1,6.2-21.1,11.2-33,15.2c-11.9,4-24.5,6-37.7,6c-12,0-22.5-1.4-31.6-4.2
                        c-4.3-1.3-8.2-2.9-11.8-4.7c3.5-7.4,8.1-14.5,13.8-21.3c6.7-8,14.7-15.4,24.1-22.2c9.4-6.9,19.8-12.8,31.2-17.9
                        c11.4-5.1,23.6-9.1,36.8-12c13.1-2.9,26.8-4.4,40.9-4.4c11.6,0,22.5,1,32.7,3c0.3,0.1,0.6,0.1,0.9,0.2
                        C314.4,219.8,313.6,221,312.6,222.2z M178.9,469.6c-7.8,2.6-16.5,3.9-25.9,3.9c-7.8,0-13.3-1-16.5-3c-3.2-2-4.8-4.3-4.8-7
                        c0-3.4,2.2-6.2,6.7-8.6c4.5-2.4,11.2-3.6,20.3-3.6c6.4,0,13.1,0.7,20,2c7,1.3,14.3,3,21.9,5C194,463.2,186.7,466.9,178.9,469.6z
                        M401.4,383.9c-5.3,16.4-13.2,30.6-23.6,42.8c-10.5,12.1-23.5,21.7-39,28.7c-15.6,7-33.6,10.5-54,10.5c-9.9,0-19.5-1-28.7-2.9
                        c-9.3-1.9-18.6-4.2-27.9-6.7c9.4-7.9,17.9-17.2,25.4-28c7.5-10.7,14.5-22.4,21-34.8c6.4-12.5,12.6-25.6,18.6-39.3
                        c5.9-13.7,12-27.5,18.1-41.5c6.2-13.9,12.7-27.7,19.7-41.3c7-13.6,14.7-26.5,23.2-38.7c8.8,4.9,16.7,10.7,23.5,17.6
                        c6.9,6.9,12.6,14.5,17.3,22.8c4.7,8.4,8.3,17.4,10.7,27.2c2.4,9.8,3.7,20,3.7,30.8C409.3,350,406.6,367.6,401.4,383.9z"/>
                    </svg>